<svg id="visual" viewBox="0 0 900 600" width="900" height="600" xmlns="http://www.w3.org/2000/svg" xmlns:xlink="http://www.w3.org/1999/xlink" version="1.1"><path d="M791 600L794 550C797 500 803 400 818 300C833 200 857 100 869 50L881 0L900 0L900 50C900 100 900 200 900 300C900 400 900 500 900 550L900 600Z" fill="#dde2ff"></path><path d="M710 600L654.5 550C599 500 488 400 500 300C512 200 647 100 714.5 50L782 0L882 0L870 50C858 100 834 200 819 300C804 400 798 500 795 550L792 600Z" fill="#d6dcff"></path><path d="M674 600L615.5 550C557 500 440 400 450.5 300C461 200 599 100 668 50L737 0L783 0L715.5 50C648 100 513 200 501 300C489 400 600 500 655.5 550L711 600Z" fill="#cfd7ff"></path><path d="M566 600L522.5 550C479 500 392 400 399.5 300C407 200 509 100 560 50L611 0L738 0L669 50C600 100 462 200 451.5 300C441 400 558 500 616.5 550L675 600Z" fill="#c5cfff"></path><path d="M503 600L449 550C395 500 287 400 260 300C233 200 287 100 314 50L341 0L612 0L561 50C510 100 408 200 400.5 300C393 400 480 500 523.5 550L567 600Z" fill="#b9c5ff"></path><path d="M0 600L0 550C0 500 0 400 0 300C0 200 0 100 0 50L0 0L342 0L315 50C288 100 234 200 261 300C288 400 396 500 450 550L504 600Z" fill="#adbbff"></path></svg>