<svg id="visual" viewBox="0 0 900 600" width="900" height="600" xmlns="http://www.w3.org/2000/svg" xmlns:xlink="http://www.w3.org/1999/xlink" version="1.1"><path d="M746 600L762.5 550C779 500 812 400 822.5 300C833 200 821 100 815 50L809 0L900 0L900 50C900 100 900 200 900 300C900 400 900 500 900 550L900 600Z" fill="#dde2ff"></path><path d="M494 600L470 550C446 500 398 400 438.5 300C479 200 608 100 672.5 50L737 0L810 0L816 50C822 100 834 200 823.5 300C813 400 780 500 763.5 550L747 600Z" fill="#d8deff"></path><path d="M404 600L386 550C368 500 332 400 377 300C422 200 548 100 611 50L674 0L738 0L673.5 50C609 100 480 200 439.5 300C399 400 447 500 471 550L495 600Z" fill="#d3daff"></path><path d="M341 600L327.5 550C314 500 287 400 341 300C395 200 530 100 597.5 50L665 0L675 0L612 50C549 100 423 200 378 300C333 400 369 500 387 550L405 600Z" fill="#ced6ff"></path><path d="M305 600L296 550C287 500 269 400 312.5 300C356 200 461 100 513.5 50L566 0L666 0L598.5 50C531 100 396 200 342 300C288 400 315 500 328.5 550L342 600Z" fill="#c7d0ff"></path><path d="M242 600L231.5 550C221 500 200 400 249.5 300C299 200 419 100 479 50L539 0L567 0L514.5 50C462 100 357 200 313.5 300C270 400 288 500 297 550L306 600Z" fill="#bec9ff"></path><path d="M134 600L117.5 550C101 500 68 400 54.5 300C41 200 47 100 50 50L53 0L540 0L480 50C420 100 300 200 250.5 300C201 400 222 500 232.5 550L243 600Z" fill="#b6c2ff"></path><path d="M0 600L0 550C0 500 0 400 0 300C0 200 0 100 0 50L0 0L54 0L51 50C48 100 42 200 55.5 300C69 400 102 500 118.5 550L135 600Z" fill="#adbbff"></path></svg>